<mxfile host="app.diagrams.net" modified="2023-11-09T02:25:19.897Z" agent="Mozilla/5.0 (Windows NT 10.0; Win64; x64) AppleWebKit/537.36 (KHTML, like Gecko) Chrome/116.0.0.0 Safari/537.36" etag="jHNSttsMeWNANddFa7sX" version="22.1.0" type="device">
  <diagram id="C5RBs43oDa-KdzZeNtuy" name="Page-1">
    <mxGraphModel dx="1006" dy="531" grid="1" gridSize="10" guides="1" tooltips="1" connect="1" arrows="1" fold="1" page="1" pageScale="1" pageWidth="827" pageHeight="1169" math="0" shadow="0">
      <root>
        <mxCell id="WIyWlLk6GJQsqaUBKTNV-0" />
        <mxCell id="WIyWlLk6GJQsqaUBKTNV-1" parent="WIyWlLk6GJQsqaUBKTNV-0" />
        <mxCell id="nN3_4GbLZW95K7CqYWNi-20" style="edgeStyle=orthogonalEdgeStyle;rounded=0;orthogonalLoop=1;jettySize=auto;html=1;exitX=1;exitY=0.5;exitDx=0;exitDy=0;" edge="1" parent="WIyWlLk6GJQsqaUBKTNV-1" source="nN3_4GbLZW95K7CqYWNi-0" target="nN3_4GbLZW95K7CqYWNi-1">
          <mxGeometry relative="1" as="geometry" />
        </mxCell>
        <mxCell id="nN3_4GbLZW95K7CqYWNi-0" value="Người dùng đăng nhập&amp;nbsp;" style="rounded=0;whiteSpace=wrap;html=1;" vertex="1" parent="WIyWlLk6GJQsqaUBKTNV-1">
          <mxGeometry x="270" y="200" width="120" height="60" as="geometry" />
        </mxCell>
        <mxCell id="nN3_4GbLZW95K7CqYWNi-21" style="edgeStyle=orthogonalEdgeStyle;rounded=0;orthogonalLoop=1;jettySize=auto;html=1;exitX=1;exitY=0.5;exitDx=0;exitDy=0;" edge="1" parent="WIyWlLk6GJQsqaUBKTNV-1" source="nN3_4GbLZW95K7CqYWNi-1" target="nN3_4GbLZW95K7CqYWNi-6">
          <mxGeometry relative="1" as="geometry" />
        </mxCell>
        <mxCell id="nN3_4GbLZW95K7CqYWNi-24" style="edgeStyle=orthogonalEdgeStyle;rounded=0;orthogonalLoop=1;jettySize=auto;html=1;exitX=0.5;exitY=0;exitDx=0;exitDy=0;entryX=0.5;entryY=1;entryDx=0;entryDy=0;" edge="1" parent="WIyWlLk6GJQsqaUBKTNV-1" source="nN3_4GbLZW95K7CqYWNi-1" target="nN3_4GbLZW95K7CqYWNi-10">
          <mxGeometry relative="1" as="geometry" />
        </mxCell>
        <mxCell id="nN3_4GbLZW95K7CqYWNi-1" value="Đăng nhập" style="rounded=0;whiteSpace=wrap;html=1;" vertex="1" parent="WIyWlLk6GJQsqaUBKTNV-1">
          <mxGeometry x="490" y="200" width="120" height="60" as="geometry" />
        </mxCell>
        <mxCell id="nN3_4GbLZW95K7CqYWNi-14" style="edgeStyle=orthogonalEdgeStyle;rounded=0;orthogonalLoop=1;jettySize=auto;html=1;exitX=0.5;exitY=1;exitDx=0;exitDy=0;" edge="1" parent="WIyWlLk6GJQsqaUBKTNV-1" source="nN3_4GbLZW95K7CqYWNi-2" target="nN3_4GbLZW95K7CqYWNi-3">
          <mxGeometry relative="1" as="geometry" />
        </mxCell>
        <mxCell id="nN3_4GbLZW95K7CqYWNi-2" value="" style="ellipse;whiteSpace=wrap;html=1;aspect=fixed;" vertex="1" parent="WIyWlLk6GJQsqaUBKTNV-1">
          <mxGeometry x="115" y="110" width="50" height="50" as="geometry" />
        </mxCell>
        <mxCell id="nN3_4GbLZW95K7CqYWNi-15" style="edgeStyle=orthogonalEdgeStyle;rounded=0;orthogonalLoop=1;jettySize=auto;html=1;exitX=1;exitY=0.5;exitDx=0;exitDy=0;" edge="1" parent="WIyWlLk6GJQsqaUBKTNV-1" source="nN3_4GbLZW95K7CqYWNi-3" target="nN3_4GbLZW95K7CqYWNi-0">
          <mxGeometry relative="1" as="geometry" />
        </mxCell>
        <mxCell id="nN3_4GbLZW95K7CqYWNi-16" style="edgeStyle=orthogonalEdgeStyle;rounded=0;orthogonalLoop=1;jettySize=auto;html=1;exitX=0.5;exitY=1;exitDx=0;exitDy=0;" edge="1" parent="WIyWlLk6GJQsqaUBKTNV-1" source="nN3_4GbLZW95K7CqYWNi-3" target="nN3_4GbLZW95K7CqYWNi-4">
          <mxGeometry relative="1" as="geometry" />
        </mxCell>
        <mxCell id="nN3_4GbLZW95K7CqYWNi-3" value="Đăng ký/ Đăng nhập" style="rounded=0;whiteSpace=wrap;html=1;" vertex="1" parent="WIyWlLk6GJQsqaUBKTNV-1">
          <mxGeometry x="80" y="200" width="120" height="60" as="geometry" />
        </mxCell>
        <mxCell id="nN3_4GbLZW95K7CqYWNi-17" style="edgeStyle=orthogonalEdgeStyle;rounded=0;orthogonalLoop=1;jettySize=auto;html=1;exitX=1;exitY=0.5;exitDx=0;exitDy=0;" edge="1" parent="WIyWlLk6GJQsqaUBKTNV-1" source="nN3_4GbLZW95K7CqYWNi-4" target="nN3_4GbLZW95K7CqYWNi-5">
          <mxGeometry relative="1" as="geometry" />
        </mxCell>
        <mxCell id="nN3_4GbLZW95K7CqYWNi-4" value="Người dùng đăng ký" style="rounded=0;whiteSpace=wrap;html=1;" vertex="1" parent="WIyWlLk6GJQsqaUBKTNV-1">
          <mxGeometry x="80" y="320" width="120" height="60" as="geometry" />
        </mxCell>
        <mxCell id="nN3_4GbLZW95K7CqYWNi-18" style="edgeStyle=orthogonalEdgeStyle;rounded=0;orthogonalLoop=1;jettySize=auto;html=1;exitX=1;exitY=0.5;exitDx=0;exitDy=0;entryX=0;entryY=0.5;entryDx=0;entryDy=0;" edge="1" parent="WIyWlLk6GJQsqaUBKTNV-1" source="nN3_4GbLZW95K7CqYWNi-5" target="nN3_4GbLZW95K7CqYWNi-9">
          <mxGeometry relative="1" as="geometry" />
        </mxCell>
        <mxCell id="nN3_4GbLZW95K7CqYWNi-5" value="Đăng ký" style="rounded=0;whiteSpace=wrap;html=1;" vertex="1" parent="WIyWlLk6GJQsqaUBKTNV-1">
          <mxGeometry x="270" y="320" width="120" height="60" as="geometry" />
        </mxCell>
        <mxCell id="nN3_4GbLZW95K7CqYWNi-22" style="edgeStyle=orthogonalEdgeStyle;rounded=0;orthogonalLoop=1;jettySize=auto;html=1;exitX=1;exitY=0.5;exitDx=0;exitDy=0;" edge="1" parent="WIyWlLk6GJQsqaUBKTNV-1" source="nN3_4GbLZW95K7CqYWNi-6" target="nN3_4GbLZW95K7CqYWNi-7">
          <mxGeometry relative="1" as="geometry" />
        </mxCell>
        <mxCell id="nN3_4GbLZW95K7CqYWNi-34" style="edgeStyle=orthogonalEdgeStyle;rounded=0;orthogonalLoop=1;jettySize=auto;html=1;exitX=0.5;exitY=0;exitDx=0;exitDy=0;entryX=1;entryY=0.5;entryDx=0;entryDy=0;" edge="1" parent="WIyWlLk6GJQsqaUBKTNV-1" source="nN3_4GbLZW95K7CqYWNi-6" target="nN3_4GbLZW95K7CqYWNi-32">
          <mxGeometry relative="1" as="geometry" />
        </mxCell>
        <mxCell id="nN3_4GbLZW95K7CqYWNi-6" value="Xác thực" style="rhombus;whiteSpace=wrap;html=1;" vertex="1" parent="WIyWlLk6GJQsqaUBKTNV-1">
          <mxGeometry x="710" y="200" width="60" height="60" as="geometry" />
        </mxCell>
        <mxCell id="nN3_4GbLZW95K7CqYWNi-23" style="edgeStyle=orthogonalEdgeStyle;rounded=0;orthogonalLoop=1;jettySize=auto;html=1;exitX=0.5;exitY=1;exitDx=0;exitDy=0;entryX=0.5;entryY=0;entryDx=0;entryDy=0;" edge="1" parent="WIyWlLk6GJQsqaUBKTNV-1" source="nN3_4GbLZW95K7CqYWNi-7" target="nN3_4GbLZW95K7CqYWNi-8">
          <mxGeometry relative="1" as="geometry" />
        </mxCell>
        <mxCell id="nN3_4GbLZW95K7CqYWNi-7" value="Trang chủ" style="rounded=0;whiteSpace=wrap;html=1;" vertex="1" parent="WIyWlLk6GJQsqaUBKTNV-1">
          <mxGeometry x="810" y="200" width="120" height="60" as="geometry" />
        </mxCell>
        <mxCell id="nN3_4GbLZW95K7CqYWNi-8" value="" style="ellipse;whiteSpace=wrap;html=1;aspect=fixed;" vertex="1" parent="WIyWlLk6GJQsqaUBKTNV-1">
          <mxGeometry x="845" y="325" width="50" height="50" as="geometry" />
        </mxCell>
        <mxCell id="nN3_4GbLZW95K7CqYWNi-19" style="edgeStyle=orthogonalEdgeStyle;rounded=0;orthogonalLoop=1;jettySize=auto;html=1;exitX=0.5;exitY=0;exitDx=0;exitDy=0;entryX=0.5;entryY=1;entryDx=0;entryDy=0;" edge="1" parent="WIyWlLk6GJQsqaUBKTNV-1" source="nN3_4GbLZW95K7CqYWNi-9" target="nN3_4GbLZW95K7CqYWNi-1">
          <mxGeometry relative="1" as="geometry" />
        </mxCell>
        <mxCell id="nN3_4GbLZW95K7CqYWNi-30" style="edgeStyle=orthogonalEdgeStyle;rounded=0;orthogonalLoop=1;jettySize=auto;html=1;exitX=0.5;exitY=1;exitDx=0;exitDy=0;entryX=1;entryY=0.5;entryDx=0;entryDy=0;" edge="1" parent="WIyWlLk6GJQsqaUBKTNV-1" source="nN3_4GbLZW95K7CqYWNi-9" target="nN3_4GbLZW95K7CqYWNi-13">
          <mxGeometry relative="1" as="geometry" />
        </mxCell>
        <mxCell id="nN3_4GbLZW95K7CqYWNi-9" value="Xác thực" style="rhombus;whiteSpace=wrap;html=1;" vertex="1" parent="WIyWlLk6GJQsqaUBKTNV-1">
          <mxGeometry x="520" y="320" width="60" height="60" as="geometry" />
        </mxCell>
        <mxCell id="nN3_4GbLZW95K7CqYWNi-25" style="edgeStyle=orthogonalEdgeStyle;rounded=0;orthogonalLoop=1;jettySize=auto;html=1;exitX=0;exitY=0.5;exitDx=0;exitDy=0;entryX=1;entryY=0.5;entryDx=0;entryDy=0;" edge="1" parent="WIyWlLk6GJQsqaUBKTNV-1" source="nN3_4GbLZW95K7CqYWNi-10" target="nN3_4GbLZW95K7CqYWNi-11">
          <mxGeometry relative="1" as="geometry" />
        </mxCell>
        <mxCell id="nN3_4GbLZW95K7CqYWNi-10" value="Quên mật khẩu" style="rounded=0;whiteSpace=wrap;html=1;" vertex="1" parent="WIyWlLk6GJQsqaUBKTNV-1">
          <mxGeometry x="490" y="60" width="120" height="60" as="geometry" />
        </mxCell>
        <mxCell id="nN3_4GbLZW95K7CqYWNi-29" style="edgeStyle=orthogonalEdgeStyle;rounded=0;orthogonalLoop=1;jettySize=auto;html=1;exitX=0.5;exitY=1;exitDx=0;exitDy=0;entryX=0.25;entryY=0;entryDx=0;entryDy=0;" edge="1" parent="WIyWlLk6GJQsqaUBKTNV-1" source="nN3_4GbLZW95K7CqYWNi-11" target="nN3_4GbLZW95K7CqYWNi-1">
          <mxGeometry relative="1" as="geometry" />
        </mxCell>
        <mxCell id="nN3_4GbLZW95K7CqYWNi-37" style="edgeStyle=orthogonalEdgeStyle;rounded=0;orthogonalLoop=1;jettySize=auto;html=1;exitX=0.5;exitY=0;exitDx=0;exitDy=0;entryX=0.5;entryY=1;entryDx=0;entryDy=0;" edge="1" parent="WIyWlLk6GJQsqaUBKTNV-1" source="nN3_4GbLZW95K7CqYWNi-11" target="nN3_4GbLZW95K7CqYWNi-12">
          <mxGeometry relative="1" as="geometry" />
        </mxCell>
        <mxCell id="nN3_4GbLZW95K7CqYWNi-11" value="Xác thực" style="rhombus;whiteSpace=wrap;html=1;" vertex="1" parent="WIyWlLk6GJQsqaUBKTNV-1">
          <mxGeometry x="400" y="80" width="60" height="60" as="geometry" />
        </mxCell>
        <mxCell id="nN3_4GbLZW95K7CqYWNi-28" style="edgeStyle=orthogonalEdgeStyle;rounded=0;orthogonalLoop=1;jettySize=auto;html=1;exitX=1;exitY=0.5;exitDx=0;exitDy=0;entryX=0.5;entryY=0;entryDx=0;entryDy=0;" edge="1" parent="WIyWlLk6GJQsqaUBKTNV-1" source="nN3_4GbLZW95K7CqYWNi-12" target="nN3_4GbLZW95K7CqYWNi-10">
          <mxGeometry relative="1" as="geometry" />
        </mxCell>
        <mxCell id="nN3_4GbLZW95K7CqYWNi-12" value="Lỗi" style="ellipse;whiteSpace=wrap;html=1;aspect=fixed;" vertex="1" parent="WIyWlLk6GJQsqaUBKTNV-1">
          <mxGeometry x="405" width="50" height="50" as="geometry" />
        </mxCell>
        <mxCell id="nN3_4GbLZW95K7CqYWNi-31" style="edgeStyle=orthogonalEdgeStyle;rounded=0;orthogonalLoop=1;jettySize=auto;html=1;exitX=0;exitY=0.5;exitDx=0;exitDy=0;entryX=0.5;entryY=1;entryDx=0;entryDy=0;" edge="1" parent="WIyWlLk6GJQsqaUBKTNV-1" source="nN3_4GbLZW95K7CqYWNi-13" target="nN3_4GbLZW95K7CqYWNi-5">
          <mxGeometry relative="1" as="geometry" />
        </mxCell>
        <mxCell id="nN3_4GbLZW95K7CqYWNi-13" value="Lỗi" style="ellipse;whiteSpace=wrap;html=1;aspect=fixed;" vertex="1" parent="WIyWlLk6GJQsqaUBKTNV-1">
          <mxGeometry x="420" y="400" width="50" height="50" as="geometry" />
        </mxCell>
        <mxCell id="nN3_4GbLZW95K7CqYWNi-36" style="edgeStyle=orthogonalEdgeStyle;rounded=0;orthogonalLoop=1;jettySize=auto;html=1;exitX=0;exitY=0.5;exitDx=0;exitDy=0;entryX=0.75;entryY=0;entryDx=0;entryDy=0;" edge="1" parent="WIyWlLk6GJQsqaUBKTNV-1" source="nN3_4GbLZW95K7CqYWNi-32" target="nN3_4GbLZW95K7CqYWNi-1">
          <mxGeometry relative="1" as="geometry" />
        </mxCell>
        <mxCell id="nN3_4GbLZW95K7CqYWNi-32" value="Lỗi" style="ellipse;whiteSpace=wrap;html=1;aspect=fixed;" vertex="1" parent="WIyWlLk6GJQsqaUBKTNV-1">
          <mxGeometry x="640" y="140" width="50" height="50" as="geometry" />
        </mxCell>
      </root>
    </mxGraphModel>
  </diagram>
</mxfile>
